# xmcd CD database file
#
# Track frame offsets:
#	225
#	18660
#	38001
#	53022
#	66560
#	92249
#	105950
#	123248
#	139260
#	161090
#	177470
#	193206
#
# Disc length: 2752 seconds
#
# Revision: 2
# Processed by: cddbd v1.4b41PL1 Copyright (c) Steve Scherf et al.
# Submitted via: Feurio! 1.50.2ß - http://www.feurio.com
#
DISCID=ab0abd0c
DTITLE=Conrads - Way Back Home
DYEAR=1900
DGENRE=
TTITLE0=Queen Of 6th Ave.
TTITLE1=Last Chance Blues
TTITLE2=God Bless The Child
TTITLE3=Route 66
TTITLE4=Me and The Devil
TTITLE5=It Hurts Me Too
TTITLE6=Buzzards
TTITLE7=Money Spends
TTITLE8=No Money Down
TTITLE9=One Way Ticket
TTITLE10=Way Back Home
TTITLE11=Conrad's Farewell
EXTD=
EXTT0=
EXTT1=
EXTT2=
EXTT3=
EXTT4=
EXTT5=
EXTT6=
EXTT7=
EXTT8=
EXTT9=
EXTT10=
EXTT11=
PLAYORDER=
